<?xml version="1.0"?>
<!-- Generated by SVGo -->
<svg width="600" height="1162"
     xmlns="http://www.w3.org/2000/svg"
     xmlns:xlink="http://www.w3.org/1999/xlink">
<rect x="0" y="0" width="600" height="1162" style="fill:rgb(240,240,240)" />
<g style="font-size:15px;font-family:sans-serif">
<text x="110" y="25" style="text-anchor:middle;font-size:120%" >Structure Layout</text>
<rect x="60" y="50" width="100" height="80" style="fill:steelblue" />
<text x="170" y="60" >0</text>
<text x="220" y="60" >LogEntry.Timestamp.wall uint64 (size 8, align 8)</text>
<text x="50" y="130" style="text-anchor:end" >7</text>
<rect x="60" y="138" width="100" height="80" style="fill:steelblue" />
<text x="170" y="148" >8</text>
<text x="220" y="148" >LogEntry.Timestamp.ext int64 (size 8, align 8)</text>
<text x="50" y="218" style="text-anchor:end" >15</text>
<rect x="60" y="226" width="100" height="80" style="fill:steelblue" />
<text x="170" y="236" >16</text>
<text x="220" y="236" >LogEntry.Timestamp.loc *time.Location (size 8, align 8)</text>
<text x="50" y="306" style="text-anchor:end" >23</text>
<rect x="60" y="314" width="100" height="160" style="fill:steelblue" />
<text x="170" y="324" >24</text>
<text x="220" y="324" >LogEntry.Caller string (size 16, align 8)</text>
<text x="50" y="474" style="text-anchor:end" >39</text>
<rect x="60" y="482" width="100" height="160" style="fill:steelblue" />
<text x="170" y="492" >40</text>
<text x="220" y="492" >LogEntry.Content string (size 16, align 8)</text>
<text x="50" y="642" style="text-anchor:end" >55</text>
<rect x="60" y="650" width="100" height="160" style="fill:steelblue" />
<text x="170" y="660" >56</text>
<text x="220" y="660" >LogEntry.Level string (size 16, align 8)</text>
<text x="50" y="810" style="text-anchor:end" >71</text>
<rect x="60" y="818" width="100" height="160" style="fill:steelblue" />
<text x="170" y="828" >72</text>
<text x="220" y="828" >LogEntry.Trace string (size 16, align 8)</text>
<text x="50" y="978" style="text-anchor:end" >87</text>
<rect x="60" y="986" width="100" height="160" style="fill:steelblue" />
<text x="170" y="996" >88</text>
<text x="220" y="996" >LogEntry.FileName string (size 16, align 8)</text>
<text x="50" y="1146" style="text-anchor:end" >103</text>
</g>
</svg>
